<?xml version="1.0" standalone="no"?>
<!DOCTYPE svg PUBLIC "-//W3C//DTD SVG 20010904//EN"
 "http://www.w3.org/TR/2001/REC-SVG-20010904/DTD/svg10.dtd">
<svg version="1.0" xmlns="http://www.w3.org/2000/svg"
 width="507.000000pt" height="531.000000pt" viewBox="0 0 507.000000 531.000000"
 preserveAspectRatio="xMidYMid meet">

<g transform="translate(0.000000,531.000000) scale(0.100000,-0.100000)"
fill="#000000" stroke="none">
<path d="M0 2655 l0 -2655 2535 0 2535 0 0 2655 0 2655 -2535 0 -2535 0 0
-2655z m3145 2285 c55 -11 146 -37 201 -55 111 -38 205 -78 164 -71 -189 36
-541 32 -735 -8 -226 -46 -418 -126 -565 -238 -95 -71 -201 -175 -245 -240
-31 -47 -41 -53 -128 -88 -52 -20 -115 -48 -141 -63 -26 -15 -48 -21 -52 -16
-17 28 23 193 66 278 118 231 466 444 837 511 149 27 449 22 598 -10z m160
-220 c591 -56 1064 -395 1300 -932 20 -44 34 -82 32 -84 -2 -2 -28 31 -58 73
-77 108 -267 297 -395 392 -125 94 -339 205 -482 251 -294 94 -579 104 -882
28 -91 -23 -278 -94 -347 -133 -42 -23 -45 -23 -155 -12 l-112 12 75 76 c184
184 438 296 744 328 116 12 157 12 280 1z m-24 -451 c75 -19 138 -81 159 -158
5 -20 10 -70 10 -112 0 -131 -46 -245 -137 -341 -65 -67 -122 -98 -183 -98
l-43 0 63 57 c153 139 207 313 139 449 -33 66 -64 74 -179 45 -102 -25 -191
-66 -274 -124 l-62 -44 -64 54 c-104 86 -103 75 -21 128 209 135 423 187 592
144z m-1009 -157 c134 -38 318 -182 410 -320 47 -69 92 -152 86 -157 -2 -2
-32 14 -68 36 -68 41 -211 101 -268 114 l-33 7 35 -55 c80 -125 111 -260 103
-446 -8 -208 -58 -351 -158 -461 -27 -30 -44 -44 -38 -30 27 54 11 351 -19
350 -4 -1 -18 -24 -32 -53 -15 -33 -57 -84 -115 -142 -76 -77 -104 -98 -185
-137 -192 -93 -295 -101 -427 -35 -40 21 -76 37 -81 37 -5 0 4 -37 20 -82 27
-74 29 -93 26 -173 -4 -72 -9 -100 -31 -141 -50 -99 -113 -130 -241 -121 -152
11 -356 86 -471 174 -58 45 -112 128 -121 189 -10 70 9 108 86 169 88 70 112
101 108 139 -3 29 -6 31 -46 34 -23 2 -80 -4 -125 -12 -143 -27 -247 -16 -247
25 0 46 223 218 485 374 99 59 188 115 198 124 15 15 16 24 7 69 -12 64 -2 93
48 146 62 65 175 133 385 236 231 111 294 137 392 156 89 17 229 11 317 -14z
m1528 -53 c343 -138 595 -331 776 -594 116 -169 188 -350 225 -566 18 -106 21
-149 16 -294 -8 -242 -50 -417 -153 -634 -45 -96 -144 -275 -149 -269 -1 2 12
62 31 134 50 201 67 326 67 519 0 290 -54 529 -187 818 -79 174 -255 411 -506
682 -122 131 -171 178 -255 240 -38 28 7 16 135 -36z m-99 -429 c364 -213 606
-581 700 -1065 27 -144 30 -428 4 -550 -65 -309 -197 -517 -466 -736 -81 -66
-261 -187 -338 -229 -12 -6 13 33 56 87 278 354 427 726 464 1159 41 474 -136
980 -460 1317 -30 31 -50 57 -42 57 7 0 44 -18 82 -40z m-921 -370 c48 -145
65 -296 52 -450 -30 -348 -148 -547 -537 -908 -347 -322 -473 -487 -556 -733
-30 -86 -32 -105 -32 -219 -1 -135 19 -236 69 -347 24 -55 24 -56 3 -37 -117
103 -231 297 -266 449 -42 186 -11 404 83 590 98 192 224 333 499 558 211 172
384 347 454 461 115 185 168 404 157 651 -3 77 -8 154 -11 170 -9 50 51 -79
85 -185z m673 8 c95 -94 153 -175 208 -292 80 -171 119 -362 119 -583 0 -215
-35 -376 -125 -569 -117 -252 -288 -444 -659 -739 -225 -179 -376 -325 -447
-434 -27 -40 -49 -67 -49 -60 0 38 46 175 90 267 82 171 148 265 381 533 63
74 138 163 166 199 188 244 322 522 380 790 25 117 25 397 -1 525 -25 126 -68
255 -119 358 -25 48 -41 87 -36 87 5 0 46 -37 92 -82z m-338 -105 c146 -193
215 -398 215 -644 0 -216 -42 -387 -146 -594 -90 -180 -165 -274 -444 -560
-153 -157 -280 -297 -319 -351 -188 -263 -231 -529 -122 -768 l30 -67 -38 31
c-142 111 -257 282 -302 445 -31 114 -24 303 16 425 72 222 198 403 461 659
359 350 488 519 567 746 43 124 57 211 57 357 0 154 -23 284 -75 433 -7 22 37
-27 100 -112z m-2521 -534 c4 -28 16 -74 27 -102 18 -45 19 -57 8 -89 -14 -43
-19 -45 -41 -20 -50 55 -107 221 -108 309 l0 32 54 -40 c49 -37 54 -44 60 -90z
m254 -328 c96 -48 230 -98 366 -136 127 -36 206 -68 206 -83 0 -5 -30 -19 -67
-32 -83 -28 -197 -84 -240 -116 -17 -13 -38 -24 -45 -24 -14 0 -65 -66 -85
-109 -7 -14 -12 -38 -13 -53 0 -16 -4 -28 -8 -28 -19 0 -130 74 -170 113 -150
146 -186 370 -76 472 35 32 62 32 132 -4z m587 -624 c-109 -269 -115 -599 -17
-862 16 -44 33 -89 37 -100 11 -30 -68 60 -120 136 -153 226 -146 516 18 768
48 73 109 152 114 147 2 -1 -13 -41 -32 -89z"/>
<path d="M1643 3689 c-83 -16 -145 -65 -188 -148 -13 -25 -42 -64 -65 -86 -56
-53 -184 -204 -178 -210 2 -2 26 10 54 29 27 18 98 59 159 91 105 56 112 59
185 59 65 1 81 5 118 29 24 15 41 33 39 40 -3 7 -9 11 -15 10 -25 -6 -62 17
-62 38 0 21 2 22 98 16 96 -6 98 -5 146 25 45 29 47 33 30 45 -28 21 -162 60
-224 65 -30 3 -74 2 -97 -3z"/>
</g>
</svg>
